<?xml version="1.0" encoding="UTF-8" standalone="no"?><!DOCTYPE svg PUBLIC "-//W3C//DTD SVG 1.1//EN" "http://www.w3.org/Graphics/SVG/1.1/DTD/svg11.dtd"><svg width="100%" height="100%" viewBox="0 0 267 267" version="1.1" xmlns="http://www.w3.org/2000/svg" xmlns:xlink="http://www.w3.org/1999/xlink" xml:space="preserve" xmlns:serif="http://www.serif.com/" style="fill-rule:evenodd;clip-rule:evenodd;stroke-linecap:round;stroke-linejoin:round;stroke-miterlimit:1.5;"><g id="Regular"><path d="M133.333,5.091l111.058,64.119l0,128.239l-111.058,64.119l-111.057,-64.119l-0,-128.239l111.057,-64.119Z" style="fill:none;stroke:#3e3e3e;stroke-width:8.33px;"/><path d="M133.333,5.091l-111.057,63.922l-0,128.633l73.898,-42.534" style="fill:none;stroke:#3e3e3e;stroke-width:8.33px;"/><path d="M133.333,4.893l111.058,63.922l0,128.634l-73.742,-42.9" style="fill:none;stroke:#3e3e3e;stroke-width:8.33px;"/><path d="M22.276,69.013l37.095,21.417l73.962,-42.9l73.963,42.834l37.095,-21.549l-110.714,-63.724l-111.401,63.922Z" style="fill:none;stroke:#3e3e3e;stroke-width:8.33px;"/><path d="M96.158,112.025l-36.787,21.304l-0,-42.965l73.962,-42.834l73.963,42.834l-0,42.965l-36.638,-21.218l-0.027,127.974l-37.298,21.483l-37.129,-21.574l-0.046,-127.969Z" style="fill:none;stroke:#3e3e3e;stroke-width:8.33px;"/><path d="M59.371,90.364l-0,42.965l-37.095,-21.351l-0,-42.965l37.095,21.351Z" style="fill:none;stroke:#3e3e3e;stroke-width:8.33px;"/><path d="M207.296,90.364l-0,42.965l37.095,-21.351l0,-42.965l-37.095,21.351Z" style="fill:none;stroke:#3e3e3e;stroke-width:8.33px;"/></g></svg>